<svg width="96" height="21" viewBox="0 0 96 21" fill="none" xmlns="http://www.w3.org/2000/svg">
<path d="M33.0539 9.53026V5.26986L40.5818 5.26986V2.81689L30.3844 2.8169V17.9736H33.0539V11.9832H39.9411V9.53026H33.0539Z" fill="#A9A9A9"/>
<path fill-rule="evenodd" clip-rule="evenodd" d="M47.2288 15.8563C49.2641 15.8563 50.5389 14.2876 50.5389 12.448C50.5389 10.6084 49.2641 9.03967 47.2288 9.03967C45.1935 9.03967 43.9186 10.6084 43.9186 12.448C43.9186 14.2876 45.1935 15.8563 47.2288 15.8563ZM47.2288 18.2318C50.5312 18.2318 53.0749 15.6423 53.0749 12.448C53.0749 9.25368 50.5312 6.66417 47.2288 6.66417C43.9263 6.66417 41.3826 9.25368 41.3826 12.448C41.3826 15.6423 43.9263 18.2318 47.2288 18.2318Z" fill="#A9A9A9"/>
<path fill-rule="evenodd" clip-rule="evenodd" d="M59.455 15.8563C61.4903 15.8563 62.7651 14.2876 62.7651 12.448C62.7651 10.6084 61.4903 9.03967 59.455 9.03967C57.4197 9.03967 56.1448 10.6084 56.1448 12.448C56.1448 14.2876 57.4197 15.8563 59.455 15.8563ZM59.455 18.2318C62.7574 18.2318 65.3011 15.6423 65.3011 12.448C65.3011 9.25368 62.7574 6.66417 59.455 6.66417C56.1525 6.66417 53.6088 9.25368 53.6088 12.448C53.6088 15.6423 56.1525 18.2318 59.455 18.2318Z" fill="#A9A9A9"/>
<path fill-rule="evenodd" clip-rule="evenodd" d="M80.5972 15.8563C82.6326 15.8563 83.9074 14.2876 83.9074 12.448C83.9074 10.6084 82.6326 9.03967 80.5972 9.03967C78.5619 9.03967 77.2871 10.6084 77.2871 12.448C77.2871 14.2876 78.5619 15.8563 80.5972 15.8563ZM80.5972 18.2318C83.8997 18.2318 86.4434 15.6423 86.4434 12.448C86.4434 9.25368 83.8997 6.66417 80.5972 6.66417C77.2948 6.66417 74.7511 9.25368 74.7511 12.448C74.7511 15.6423 77.2948 18.2318 80.5972 18.2318Z" fill="#A9A9A9"/>
<path d="M72.8825 9.03967C70.9945 9.03967 69.1719 10.2346 69.1719 12.7062V17.9736H66.6359V6.92238H69.1719V8.57616C70.0122 6.96666 71.3345 6.66417 73.4163 6.66417H74.8579V9.03967H72.8825Z" fill="#A9A9A9"/>
<path d="M94.0247 9.03967C92.1368 9.03967 90.3141 10.2346 90.3141 12.7062V17.9736H87.7781V6.92238H90.3141V8.57616C91.1545 6.96666 92.4768 6.66417 94.5586 6.66417H96.0001V9.03967H94.0247Z" fill="#A9A9A9"/>
<path d="M14.8368 0.475098L8.49334 12.8955L0.31427 12.8955L6.65778 0.475098H14.8368Z" fill="#A9A9A9"/>
<path d="M20.5438 7.73752L14.2003 20.1579H6.02125L12.3648 7.73752H20.5438Z" fill="#A9A9A9"/>
</svg>
