<svg width="45" height="33" viewBox="0 0 45 33" fill="none" xmlns="http://www.w3.org/2000/svg">
<path d="M9.34413 0.00731659C12.5868 0.0926514 14.9335 1.24465 16.3841 3.46332C17.8348 5.68199 18.5601 8.24199 18.5601 11.1433C18.5601 14.4713 17.8775 17.6286 16.5121 20.6153C15.0615 23.602 13.2268 26.162 11.0081 28.2953C8.70413 30.514 6.27213 32.05 3.71213 32.9033L0.000125885 27.6553C1.10946 26.8873 2.30413 25.8633 3.58413 24.5833C4.7788 23.3887 5.88813 22.1087 6.91213 20.7433C7.8508 19.378 8.4908 18.0127 8.83213 16.6473C7.21079 16.562 5.8028 16.1353 4.60813 15.3673C3.41346 14.6846 2.47479 13.746 1.79213 12.5513C1.10946 11.442 0.768127 10.0767 0.768127 8.45531C0.768127 5.63931 1.62146 3.50598 3.32813 2.05532C5.03479 0.604652 7.04013 -0.0780144 9.34413 0.00731659ZM35.2001 0.00731659C38.5281 0.0926514 40.9175 1.24465 42.3681 3.46332C43.8188 5.68199 44.5441 8.24199 44.5441 11.1433C44.5441 14.4713 43.8615 17.6286 42.4961 20.6153C41.0455 23.602 39.2108 26.162 36.9921 28.2953C34.6881 30.514 32.2561 32.05 29.6961 32.9033L25.9841 27.6553C27.0935 26.8873 28.2881 25.8633 29.5681 24.5833C30.7628 23.3887 31.8295 22.1087 32.7681 20.7433C33.7068 19.378 34.3895 18.0127 34.8161 16.6473C33.1948 16.562 31.7868 16.1353 30.5921 15.3673C29.3975 14.6846 28.4588 13.746 27.7761 12.5513C27.0935 11.442 26.7521 10.0767 26.7521 8.45531C26.7521 5.63931 27.6055 3.50598 29.3121 2.05532C31.0188 0.689983 32.9815 0.00731659 35.2001 0.00731659Z" fill="#BDDBDB"/>
</svg>
