<svg width="64" height="64" viewBox="0 0 64 64" fill="none" xmlns="http://www.w3.org/2000/svg">
<rect x="-0.000244141" width="64" height="64" rx="32" fill="black"/>
<path fill-rule="evenodd" clip-rule="evenodd" d="M31.9998 19C35.8657 19 38.9998 22.134 38.9998 26V28H41.9998C43.6566 28 44.9998 29.3431 44.9998 31V42C44.9998 43.6569 43.6566 45 41.9998 45H21.9998C20.3429 45 18.9998 43.6569 18.9998 42V31C18.9998 29.3431 20.3429 28 21.9998 28H24.9998V26C24.9998 22.134 28.1338 19 31.9998 19ZM34.9998 26V28H28.9998V26C28.9998 24.3431 30.3429 23 31.9998 23C33.6566 23 34.9998 24.3431 34.9998 26ZM34.9998 35C34.9998 36.3062 34.1649 37.4175 32.9998 37.8293V40C32.9998 40.5523 32.552 41 31.9998 41C31.4475 41 30.9998 40.5523 30.9998 40V37.8293C29.8346 37.4175 28.9998 36.3062 28.9998 35C28.9998 33.3431 30.3429 32 31.9998 32C33.6566 32 34.9998 33.3431 34.9998 35Z" fill="white"/>
</svg>
