<svg width="167" height="167" viewBox="0 0 167 167" fill="none" xmlns="http://www.w3.org/2000/svg">
<rect width="166" height="166" transform="translate(0.666626 0.541016)" fill="white"/>
<path d="M83.6665 33.7407C56.1644 33.7407 33.8665 56.0351 33.8665 83.5366C33.8665 111.042 56.1644 133.341 83.6665 133.341C111.169 133.341 133.466 111.042 133.466 83.5407C133.466 56.0351 111.169 33.7407 83.6665 33.7407ZM79.9522 53.909H87.3724C89.381 53.909 90.3978 53.9173 91.1655 54.3077C91.8396 54.6505 92.3874 55.1987 92.7301 55.8731C93.1202 56.6413 93.1243 57.6504 93.1243 59.6601V84.6411C93.1243 85.1394 93.1243 85.3969 93.0621 85.6294C93.0042 85.8342 92.9101 86.0269 92.784 86.1983C92.5733 86.4527 92.3306 86.6788 92.0619 86.871L89.1777 89.2129C88.7087 89.595 88.4722 89.786 88.385 90.0185C88.3106 90.2195 88.3106 90.4404 88.385 90.6414C88.468 90.8698 88.7087 91.0608 89.1777 91.4428L92.0619 93.7889C92.452 94.1045 92.6429 94.2664 92.784 94.4616C92.9085 94.636 93.004 94.8229 93.0621 95.0305C93.1248 95.3559 93.1458 95.688 93.1243 96.0188V107.421C93.1243 109.431 93.1202 110.44 92.7301 111.208C92.3874 111.883 91.8396 112.431 91.1655 112.774C90.3978 113.164 89.381 113.172 87.3724 113.172H79.9522C77.9436 113.172 76.9393 113.164 76.1674 112.774C75.4933 112.431 74.9455 111.883 74.6029 111.208C74.2128 110.44 74.2086 109.431 74.2086 107.421V82.4403C74.2086 81.942 74.2086 81.6846 74.2709 81.4521C74.3286 81.2447 74.4227 81.0492 74.5489 80.8749C74.69 80.6797 74.8809 80.5302 75.271 80.2105L78.1553 77.8685C78.6242 77.4865 78.8608 77.2955 78.9479 77.0629C79.0223 76.862 79.0223 76.641 78.9479 76.4401C78.8649 76.2117 78.6242 76.0207 78.1553 75.6387L75.271 73.2925C75.0022 73.1005 74.7595 72.8744 74.5489 72.6199C74.4227 72.4455 74.3286 72.25 74.2709 72.0427C74.2081 71.7201 74.1871 71.3907 74.2086 71.0627V59.6643C74.2086 57.6545 74.2128 56.6455 74.6029 55.8773C74.9455 55.2028 75.4933 54.6546 76.1674 54.3118C76.9393 53.9215 77.9436 53.909 79.9522 53.909Z" fill="black"/>
</svg>
